<svg xmlns="http://www.w3.org/2000/svg">
    <symbol id="logo">
        <path d="M19.25 25.5C22.7018 25.5 25.5 22.7018 25.5 19.25C25.5 15.7982 22.7018 13 19.25 13C15.7982 13 13 15.7982 13 19.25C13 22.7018 15.7982 25.5 19.25 25.5Z" fill="#EDFF81"/>
        <path d="M21.125 9.25C23.5412 9.25 25.5 7.29125 25.5 4.875C25.5 2.45875 23.5412 0.5 21.125 0.5C18.7088 0.5 16.75 2.45875 16.75 4.875C16.75 7.29125 18.7088 9.25 21.125 9.25Z" fill="white"/>
        <path d="M4.9126 25.4625C7.32884 25.4625 9.2876 23.5038 9.2876 21.0875C9.2876 18.6713 7.32884 16.7125 4.9126 16.7125C2.49635 16.7125 0.537598 18.6713 0.537598 21.0875C0.537598 23.5038 2.49635 25.4625 4.9126 25.4625Z" fill="white"/>
        <path d="M6.75 13C10.2018 13 13 10.2018 13 6.75C13 3.29822 10.2018 0.5 6.75 0.5C3.29822 0.5 0.5 3.29822 0.5 6.75C0.5 10.2018 3.29822 13 6.75 13Z" fill="#EDFF81"/>
    </symbol>

    <symbol id="slack">
        <g  clip-path="url(#clip0_2_150)">
            <path fill-rule="evenodd" clip-rule="evenodd" d="M39.3501 24.5065L40.8851 20.9395C42.5432 22.1794 44.7523 22.8239 46.9318 22.8239C48.5407 22.8239 49.5591 22.204 49.5591 21.2642C49.5345 18.637 39.9208 20.6935 39.847 14.1056C39.8224 10.76 42.7941 8.18196 47.0056 8.18196C49.5099 8.18196 52.0093 8.80188 53.7952 10.2139L52.3586 13.8547C50.7251 12.8117 48.6932 12.0688 46.7596 12.0688C45.446 12.0688 44.5801 12.6887 44.5801 13.4808C44.6047 16.0589 54.2921 14.6468 54.3905 20.9395C54.3905 24.3589 51.4927 26.7648 47.3303 26.7648C44.2799 26.7599 41.4805 26.0416 39.3501 24.5065ZM98.2966 19.6505C97.5291 20.9887 96.0925 21.9038 94.4295 21.9038C91.9744 21.9038 89.9966 19.9211 89.9966 17.4709C89.9966 15.0208 91.9793 13.038 94.4295 13.038C96.0875 13.038 97.5291 13.9531 98.2966 15.2914L102.533 12.9396C100.948 10.1155 97.8981 8.18196 94.4295 8.18196C89.2979 8.18196 85.1356 12.3443 85.1356 17.4758C85.1356 22.6074 89.2979 26.7697 94.4295 26.7697C97.9227 26.7697 100.948 24.8608 102.533 22.0121L98.2966 19.6505ZM56.5209 0.472321H61.8247V26.4155H56.5209V0.472321ZM104.614 0.472321V26.4155H109.918V18.632L116.21 26.4155H123L114.995 17.1708L122.405 8.54604H115.91L109.913 15.7046V0.472321H104.614Z" />
            <path d="M77.5835 19.6996C76.816 20.9641 75.2318 21.9038 73.4458 21.9038C70.9907 21.9038 69.0129 19.921 69.0129 17.4709C69.0129 15.0207 70.9957 13.038 73.4458 13.038C75.2318 13.038 76.816 14.0269 77.5835 15.3159V19.6996ZM77.5835 8.55092V10.6567C76.7176 9.19544 74.5627 8.177 72.3044 8.177C67.6451 8.177 63.9797 12.2901 63.9797 17.4463C63.9797 22.6024 67.6451 26.7648 72.3044 26.7648C74.5577 26.7648 76.7127 25.7512 77.5835 24.2851V26.3908H82.8873V8.55092H77.5835Z" />
            <path fill-rule="evenodd" clip-rule="evenodd" d="M6.56826 19.6751C6.56826 21.4857 5.10702 22.9469 3.29646 22.9469C1.4859 22.9469 0.0246582 21.4807 0.0246582 19.6751C0.0246582 17.8695 1.4859 16.4033 3.29646 16.4033H6.56826V19.6751ZM8.2017 19.6751C8.2017 17.8645 9.66294 16.4033 11.4735 16.4033C13.2841 16.4033 14.7453 17.8645 14.7453 19.6751V27.8521C14.7453 29.6627 13.2841 31.124 11.4735 31.124C9.66294 31.124 8.2017 29.6627 8.2017 27.8521V19.6751Z" />
            <path fill-rule="evenodd" clip-rule="evenodd" d="M11.4734 6.5436C9.66288 6.5436 8.20164 5.08236 8.20164 3.2718C8.20164 1.46124 9.66288 0 11.4734 0C13.284 0 14.7452 1.46124 14.7452 3.2718V6.5436H11.4734ZM11.4734 8.20164C13.284 8.20164 14.7452 9.66288 14.7452 11.4734C14.7452 13.284 13.284 14.7452 11.4734 14.7452H3.2718C1.46124 14.7452 0 13.2791 0 11.4734C0 9.6678 1.46124 8.20164 3.2718 8.20164H11.4734Z" />
            <path fill-rule="evenodd" clip-rule="evenodd" d="M24.5804 11.4734C24.5804 9.66288 26.0416 8.20164 27.8522 8.20164C29.6627 8.20164 31.124 9.66288 31.124 11.4734C31.124 13.284 29.6627 14.7452 27.8522 14.7452H24.5804V11.4734ZM22.9469 11.4734C22.9469 13.284 21.4857 14.7452 19.6751 14.7452C17.8646 14.7452 16.4033 13.284 16.4033 11.4734V3.2718C16.4033 1.46124 17.8646 0 19.6751 0C21.4857 0 22.9469 1.46124 22.9469 3.2718V11.4734Z" />
            <path fill-rule="evenodd" clip-rule="evenodd" d="M19.6751 24.5803C21.4857 24.5803 22.9469 26.0416 22.9469 27.8521C22.9469 29.6627 21.4857 31.124 19.6751 31.124C17.8646 31.124 16.4033 29.6627 16.4033 27.8521V24.5803H19.6751ZM19.6751 22.9469C17.8646 22.9469 16.4033 21.4857 16.4033 19.6751C16.4033 17.8645 17.8646 16.4033 19.6751 16.4033H27.8767C29.6873 16.4033 31.1485 17.8645 31.1485 19.6751C31.1485 21.4857 29.6873 22.9469 27.8767 22.9469H19.6751Z" />
        </g>
        <defs>
            <clipPath id="clip0_2_150">
                <rect width="123" height="31.1239" fill="white"/>
            </clipPath>
        </defs>
    </symbol>

    <symbol id="amazon">
                    <path fill-rule="evenodd" clip-rule="evenodd"
                d="M72.5811 27.5257C65.8074 32.5303 55.9548 35.1967 47.4569 35.1967C35.5516 35.1967 24.8779 30.8074 16.7495 23.5056C16.1337 22.9313 16.6674 22.1519 17.4474 22.6031C26.1916 27.6898 36.9884 30.7254 48.1547 30.7254C55.6674 30.7254 63.96 29.1665 71.5958 25.9258C72.7453 25.4746 73.6895 26.7053 72.5811 27.5257Z"
                 />
                    <path fill-rule="evenodd" clip-rule="evenodd"
                d="M75.4136 24.2849C74.5515 23.1773 69.6662 23.7516 67.4904 24.0388C66.8336 24.1208 66.7104 23.5465 67.3262 23.1363C71.2262 20.3878 77.5894 21.2083 78.3283 22.1108C79.0673 23.0132 78.1231 29.4127 74.4694 32.4483C73.8947 32.8995 73.361 32.6534 73.6073 32.0381C74.4283 29.987 76.2757 25.4335 75.4136 24.2849Z"
                 />
                    <path fill-rule="evenodd" clip-rule="evenodd"
                d="M67.6137 3.85605V1.18963C67.6137 0.779413 67.901 0.533279 68.2705 0.533279H80.1758C80.5453 0.533279 80.8737 0.820435 80.8737 1.18963V3.44584C80.8737 3.81503 80.5453 4.3073 79.9705 5.12774L73.8126 13.9064C76.1116 13.8654 78.5337 14.1936 80.5863 15.3422C81.0379 15.5883 81.161 15.9985 81.2021 16.3677V19.1982C81.2021 19.6085 80.7916 20.0597 80.34 19.8136C76.6863 17.8855 71.8011 17.6804 67.7779 19.8546C67.3674 20.0597 66.9158 19.6495 66.9158 19.2393V16.5318C66.9158 16.1216 66.9158 15.3832 67.3674 14.7269L74.5105 4.51241H68.3116C67.9421 4.51241 67.6137 4.22525 67.6137 3.85605ZM24.2211 20.3879H20.6084C20.28 20.3468 19.9926 20.1007 19.9516 19.7725V1.23066C19.9516 0.86146 20.28 0.574304 20.6495 0.574304H24.0158C24.3853 0.574304 24.6316 0.861457 24.6726 1.18963V3.60992H24.7547C25.6168 1.27167 27.3 0.164085 29.5168 0.164085C31.7747 0.164085 33.2116 1.27167 34.1968 3.60992C35.0589 1.27167 37.0705 0.164085 39.2053 0.164085C40.7242 0.164085 42.3663 0.779413 43.3926 2.21518C44.5421 3.77401 44.2958 6.03022 44.2958 8.04029V19.7725C44.2958 20.1417 43.9674 20.4289 43.5979 20.4289H40.0263C39.6568 20.3879 39.3695 20.1007 39.3695 19.7725V9.92729C39.3695 9.14787 39.4516 7.17882 39.2874 6.44043C39 5.20977 38.22 4.84058 37.1526 4.84058C36.2905 4.84058 35.3463 5.41489 34.9768 6.35839C34.6074 7.3019 34.6484 8.86072 34.6484 9.92729V19.7725C34.6484 20.1417 34.32 20.4289 33.9505 20.4289H30.3379C29.9684 20.3879 29.6811 20.1007 29.6811 19.7725V9.92729C29.6811 7.87619 30.0095 4.79955 27.4642 4.79955C24.8779 4.79955 24.96 7.75313 24.96 9.92729V19.7725C24.9189 20.1007 24.6316 20.3879 24.2211 20.3879ZM91.1368 0.164085C96.5147 0.164085 99.4295 4.75854 99.4295 10.6247C99.4295 16.2857 96.2274 20.7981 91.1368 20.7981C85.8821 20.7981 83.0084 16.2036 83.0084 10.4606C82.9674 4.67649 85.8821 0.164085 91.1368 0.164085ZM91.1368 3.97912C88.4684 3.97912 88.3042 7.63007 88.3042 9.88628C88.3042 12.1425 88.2632 16.9831 91.0958 16.9831C93.8874 16.9831 94.0516 13.086 94.0516 10.7067C94.0516 9.14788 93.9695 7.26088 93.5179 5.78409C93.1074 4.47139 92.2863 3.97912 91.1368 3.97912ZM106.367 20.3879H102.755C102.385 20.3468 102.098 20.0597 102.098 19.7315V1.14861C102.139 0.820433 102.426 0.533279 102.796 0.533279H106.162C106.491 0.533279 106.737 0.779418 106.819 1.06657V3.89708H106.901C107.927 1.35372 109.323 0.164085 111.827 0.164085C113.428 0.164085 115.029 0.738386 116.056 2.33824C117 3.81503 117 6.31737 117 8.12233V19.8136C116.959 20.1417 116.672 20.3879 116.302 20.3879H112.689C112.361 20.3468 112.074 20.1007 112.033 19.8136V9.72218C112.033 7.67108 112.279 4.71752 109.775 4.71752C108.913 4.71752 108.092 5.29183 107.681 6.19431C107.188 7.34292 107.106 8.4505 107.106 9.72218V19.7315C107.065 20.1007 106.737 20.3879 106.367 20.3879ZM58.1305 11.5272C58.1305 12.9219 58.1716 14.1115 57.4737 15.3832C56.8989 16.4088 55.9958 17.0241 54.9695 17.0241C53.5737 17.0241 52.7526 15.9575 52.7526 14.3987C52.7526 11.322 55.5032 10.7477 58.1305 10.7477V11.5272ZM61.7842 20.3469C61.5379 20.552 61.2095 20.593 60.9221 20.4289C59.7316 19.4444 59.4853 18.9521 58.8284 18.0086C56.8579 20.0187 55.421 20.634 52.8758 20.634C49.8379 20.634 47.4568 18.747 47.4568 15.014C47.4568 12.0604 49.0579 10.0914 51.3158 9.10685C53.2863 8.24539 56.0368 8.08131 58.1305 7.83518V7.38394C58.1305 6.52248 58.2126 5.49693 57.6789 4.75854C57.2274 4.10219 56.4063 3.81503 55.6674 3.81503C54.2716 3.81503 53.04 4.51241 52.7526 5.9892C52.6705 6.31737 52.4653 6.64554 52.1368 6.64554L48.6474 6.27634C48.36 6.1943 48.0316 5.98919 48.1137 5.53795C48.9347 1.27168 52.7526 0 56.201 0C57.9663 0 60.2653 0.451238 61.6611 1.80496C63.4263 3.44584 63.2621 5.66102 63.2621 8.04029V13.6603C63.2621 15.3422 63.96 16.0806 64.6168 17.0241C64.8632 17.3523 64.9042 17.7625 64.6168 17.9676C63.8368 18.5829 62.5232 19.7315 61.7842 20.3469ZM10.7147 11.5272C10.7147 12.9219 10.7558 14.1115 10.0579 15.3832C9.48316 16.4088 8.58 17.0241 7.55368 17.0241C6.15789 17.0241 5.33684 15.9575 5.33684 14.3987C5.33684 11.322 8.08737 10.7477 10.7147 10.7477V11.5272ZM14.3274 20.3469C14.081 20.552 13.7526 20.593 13.4653 20.4289C12.2747 19.4444 12.0284 18.9521 11.3716 18.0086C9.40105 20.0187 7.96421 20.634 5.41895 20.634C2.38105 20.634 0 18.747 0 15.014C0 12.0604 1.60105 10.0914 3.85894 9.10685C5.82947 8.24539 8.58 8.08131 10.6737 7.83518V7.38394C10.6737 6.52248 10.7558 5.49693 10.2221 4.75854C9.77052 4.10219 8.94947 3.81503 8.21053 3.81503C6.81474 3.81503 5.58316 4.51241 5.29579 5.9892C5.21368 6.31737 5.00842 6.64554 4.68 6.64554L1.19052 6.27634C0.903155 6.1943 0.574739 5.98919 0.656845 5.53795C1.4779 1.27168 5.29579 0 8.74421 0C10.5095 0 12.8084 0.451238 14.2042 1.80496C15.9695 3.44584 15.8053 5.66102 15.8053 8.04029V13.6603C15.8053 15.3422 16.5032 16.0806 17.16 17.0241C17.4063 17.3523 17.4474 17.7625 17.16 17.9676C16.38 18.5829 15.0663 19.7315 14.3274 20.3469Z"
                 />
    </symbol>

    <symbol id="logitech">
        <g clip-path="url(#clip0_2_169)">
            <path
            d="M0 22.7643V0.474736H3.91524V22.7642H0V22.7643V22.7643ZM13.938 6.59402C8.9178 6.59402 5.44395 10.4538 5.44395 14.8718C5.44395 19.8023 9.22328 23.1992 13.977 23.1992C18.4886 23.1992 22.4037 19.8651 22.4037 14.8611C22.4037 10.6534 19.1594 6.59409 13.938 6.59409V6.59402ZM13.8918 10.3713C16.5191 10.3713 18.4527 12.4161 18.4527 14.8859C18.4527 17.5047 16.3206 19.4148 13.9626 19.4148C11.1766 19.4148 9.42308 17.2066 9.42308 14.893C9.42315 12.3571 11.4028 10.3712 13.8918 10.3712V10.3713ZM32.2411 6.59402C27.2211 6.59402 23.7471 10.4538 23.7471 14.8718C23.7471 19.8023 27.5264 23.1992 32.2801 23.1992C36.7917 23.1992 40.7068 19.8651 40.7068 14.8611C40.7068 11.9145 39.4307 10.6071 39.4307 10.6071L40.516 10.2349V7.05723H34.955C34.955 7.05723 33.7493 6.59402 32.2411 6.59402ZM32.195 10.3713C34.8221 10.3713 36.7559 12.4161 36.7559 14.8859C36.7559 17.5047 34.6238 19.4148 32.2659 19.4148C29.4798 19.4148 27.7263 17.2066 27.7263 14.893C27.7264 12.3571 29.7061 10.3712 32.195 10.3712V10.3713ZM36.7282 23.8539C36.7282 26.4725 34.5963 28.397 32.2383 28.397C29.4521 28.397 27.6916 26.1673 27.6916 23.8539H23.7195C23.7195 28.7845 27.4986 32.1811 32.2525 32.1811C36.764 32.1811 40.6791 28.8575 40.6791 23.8539H36.7282ZM42.275 22.7643V7.05723H46.1905V22.7643H42.275ZM49.9924 22.7643V10.5755H47.8928V7.05723H49.9924V2.23387H53.9078V7.05723H56.0641V10.5755H53.9078V22.7643H49.9924ZM46.8174 2.59615C46.8174 4.02807 45.6565 5.18892 44.2247 5.18892C42.7925 5.18892 41.6318 4.02799 41.6318 2.59615C41.6318 1.16416 42.7927 0.0032959 44.2247 0.0032959C45.6566 0.0032959 46.8174 1.16416 46.8174 2.59615ZM64.8668 6.58343C59.8228 6.58343 56.5713 10.4451 56.5713 15.0136C56.5713 19.7347 59.8338 23.2098 64.9484 23.2098C69.7194 23.2098 72.0663 20.2305 72.0663 20.2305L69.449 17.6096C69.449 17.6096 67.4727 19.7412 64.998 19.7412C62.935 19.7412 61.2856 18.5897 60.7101 16.4783H72.9103V15.4002C72.9105 11.0982 70.4204 6.58343 64.8668 6.58343ZM64.7427 10.0307C66.5463 10.0307 68.391 10.9957 68.8035 13.3006H60.6038C60.9284 11.6804 62.346 10.0307 64.7427 10.0307ZM82.7039 23.2119C77.6459 23.2119 74.1993 19.3593 74.1993 14.8171C74.1993 10.1295 78.0945 6.5805 82.6877 6.5805C87.128 6.5805 89.401 9.71504 89.401 9.71504L86.6695 12.4341C86.6695 12.4341 85.0873 10.3898 82.669 10.3898C79.989 10.3898 78.1564 12.4401 78.1564 14.8772C78.1564 17.4504 80.1057 19.4249 82.6389 19.4249C85.0961 19.4249 86.6657 17.384 86.6657 17.384L89.4244 20.1015C89.4244 20.1015 87.1736 23.212 82.7041 23.212H82.7039V23.2118V23.2119ZM90.849 22.7757V0.418077H94.7643V8.63237C94.7643 8.63237 96.2635 6.5805 99.5248 6.5805C103.625 6.5805 106 9.62819 106 13.5262V22.7756H102.084V14.118C102.084 11.4992 100.454 10.4127 98.648 10.4127C96.5901 10.4127 94.7644 11.5838 94.7644 14.3205V22.7757H90.849Z"
             />
        </g>
        <defs>
            <clippath id="clip0_2_169">
                <rect width="106" height="32.1816" fill="white" />
            </clippath>
        </defs>
    </symbol>

    <symbol id="google">
        <path fill-rule="evenodd" clip-rule="evenodd" d="M13.2184 0.528564H14.1469C17.371 0.595015 20.5423 1.82277 22.8201 3.99626C21.979 4.80929 21.1206 5.58909 20.2971 6.40193C19.0181 5.30707 17.4761 4.46082 15.794 4.16219C13.3061 3.6644 10.6252 4.11235 8.54018 5.45639C6.26239 6.86649 4.72041 9.25574 4.38749 11.8107C4.01969 14.3327 4.77304 16.9874 6.50759 18.9451C8.17218 20.8532 10.7129 22.0477 13.341 22.1307C15.794 22.2635 18.3522 21.5499 20.1394 19.924C21.5411 18.7791 22.1894 17.0372 22.3997 15.3449C19.4911 15.3449 16.5826 15.3613 13.6739 15.3449V11.927H25.9214C26.5522 15.5937 25.6411 19.7249 22.6975 22.3463C20.7351 24.2046 18.0193 25.2996 15.2509 25.5154C12.5701 25.7642 9.80167 25.283 7.41883 24.0552C4.56272 22.6119 2.28493 20.1728 1.16359 17.3026C0.112412 14.6645 0.0948671 11.678 1.07607 9.02337C1.96956 6.60108 3.68678 4.46082 5.89439 2.96766C8.01449 1.49091 10.5901 0.677881 13.2184 0.528564Z" />
        <path fill-rule="evenodd" clip-rule="evenodd" d="M83.4797 1.39142H87.2293V25.084C85.9852 25.084 84.7237 25.1004 83.4797 25.0674C83.4971 17.1865 83.4797 9.28895 83.4797 1.39142Z" />
        <path fill-rule="evenodd" clip-rule="evenodd" d="M34.2619 9.60419C36.5748 9.18927 39.0804 9.65383 40.9902 10.9646C42.7248 12.126 43.9339 13.9512 44.3019 15.9421C44.7749 18.2483 44.179 20.7701 42.6022 22.5953C40.9027 24.6359 38.1168 25.7309 35.4008 25.565C32.9127 25.4323 30.4948 24.2544 29.023 22.3297C27.3586 20.206 26.9555 17.286 27.8665 14.7972C28.7778 12.126 31.3534 10.0854 34.2619 9.60419ZM34.7876 12.7564C33.8415 12.9888 32.9653 13.503 32.3346 14.2332C30.6349 16.1577 30.7402 19.2935 32.6149 21.0853C33.6838 22.1141 35.2958 22.5953 36.7851 22.3131C38.1692 22.0809 39.3783 21.2016 40.0441 20.0401C41.2005 18.0658 40.8676 15.3449 39.098 13.8019C37.9591 12.8063 36.2945 12.3916 34.7876 12.7564Z" />
        <path fill-rule="evenodd" clip-rule="evenodd" d="M52.8345 9.6042C55.4803 9.12303 58.3713 9.81977 60.3513 11.5785C63.5754 14.3161 63.9256 19.4428 61.1748 22.5953C59.5102 24.5862 56.812 25.6813 54.1487 25.565C51.6081 25.4987 49.1025 24.3042 47.5956 22.3297C45.8961 20.1562 45.5281 17.1699 46.4918 14.6313C47.4554 12.0431 49.9786 10.0688 52.8345 9.6042ZM53.3602 12.7565C52.4141 12.9888 51.538 13.503 50.9072 14.2166C49.2253 16.1081 49.2953 19.1941 51.1 21.0025C52.1687 22.0809 53.8333 22.6119 55.3753 22.3131C56.7418 22.0643 57.9684 21.2016 58.6343 20.0401C59.7732 18.0492 59.4402 15.3282 57.6531 13.7853C56.5142 12.7897 54.8496 12.3916 53.3602 12.7565Z" />
        <path fill-rule="evenodd" clip-rule="evenodd" d="M68.5863 10.5664C70.6014 9.37183 73.2821 9.03997 75.4548 10.0688C76.1382 10.3508 76.6987 10.832 77.242 11.3131L77.2595 9.93607L80.7988 9.95248V24.5862C80.7812 26.7928 80.1856 29.1322 78.5035 30.7416C76.6636 32.5168 73.8428 33.0644 71.3021 32.6994C68.5863 32.3179 66.2208 30.443 65.1697 28.0704C66.2208 27.5892 67.3248 27.2077 68.4111 26.7597C69.0243 28.1202 70.2685 29.2815 71.8278 29.5471C73.3871 29.8125 75.1918 29.4474 76.2081 28.2197C77.2944 26.9587 77.2944 25.2334 77.242 23.6904C76.436 24.4369 75.5072 25.1004 74.3859 25.3494C71.9504 25.9965 69.2697 25.2001 67.3948 23.6405C65.5026 22.0809 64.3812 19.6752 64.4863 17.286C64.5389 14.5815 66.1509 11.9767 68.5863 10.5664ZM72.2133 12.6902C71.1444 12.8561 70.1457 13.4202 69.4623 14.2C67.8154 16.0582 67.8154 19.0281 69.4798 20.8531C70.4261 21.9316 71.9504 22.5289 73.4222 22.3795C74.8065 22.2468 76.0855 21.4172 76.7689 20.2725C77.9253 18.3312 77.7326 15.6931 76.173 14.0008C75.2094 12.9556 73.6676 12.4412 72.2133 12.6902Z" />
        <path fill-rule="evenodd" clip-rule="evenodd" d="M91.7323 11.4126C93.8348 9.55437 97.0763 8.92388 99.7747 9.90284C102.333 10.8154 103.962 13.1215 104.786 15.4942C100.984 16.9873 97.1989 18.4639 93.3969 19.9573C93.9226 20.903 94.7285 21.7657 95.8148 22.1141C97.3392 22.6283 99.1613 22.446 100.441 21.4836C100.949 21.1186 101.352 20.6374 101.737 20.1728L104.628 21.9978C103.261 23.9391 100.966 25.2996 98.4957 25.5154C95.7622 25.8306 92.8536 24.835 91.084 22.8109C88.1755 19.6254 88.4558 14.2828 91.7323 11.4126ZM93.6072 14.482C93.0113 15.295 92.7661 16.2904 92.7837 17.2694C95.3242 16.274 97.8647 15.2784 100.405 14.2664C99.9848 13.3373 98.9687 12.7731 97.9349 12.6238C96.2703 12.3417 94.5358 13.1878 93.6072 14.482Z" />
    </symbol>

    <symbol id="facebook">
        <path d="M77.2234 14.4083C75.9848 14.4083 75.092 14.8141 74.1867 15.2276V24.5834C75.0538 24.666 75.5509 24.666 76.3736 24.666C79.3464 24.666 79.754 23.3055 79.754 21.4061V16.9377C79.754 15.5349 79.2881 14.4083 77.2234 14.4083ZM57.48 13.8977C55.4173 13.8977 54.9466 15.0292 54.9466 16.4306V17.218H60.0105V16.4306C60.0105 15.0292 59.5398 13.8977 57.48 13.8977ZM19.2331 23.6357C19.2331 24.7443 19.7566 25.3202 20.9118 25.3202C22.1511 25.3202 22.8849 24.9164 23.7896 24.5015V22.2823H21.0799C19.7969 22.2823 19.2331 22.5209 19.2331 23.6357ZM96.4287 14.4083C94.3626 14.4083 93.6468 15.5349 93.6468 16.9377V22.0568C93.6468 23.463 94.3626 24.5931 96.4287 24.5931C98.4893 24.5931 99.2106 23.463 99.2106 22.0568V16.9377C99.2099 15.5349 98.4886 14.4083 96.4287 14.4083ZM9.10801 29.3758H3.03461V14.6865H0V9.62496H3.03531V6.58499C3.03531 2.45515 4.74805 0 9.61621 0H13.6693V5.06292H11.136C9.24062 5.06292 9.11565 5.77054 9.11565 7.09073L9.10801 9.62427H13.6971L13.1604 14.6858H9.10801V29.3758ZM29.8643 29.4139H24.8025L24.5838 28.1347C22.2726 29.4139 20.2099 29.6213 18.8492 29.6213C15.137 29.6213 13.1611 27.1433 13.1611 23.7162C13.1611 19.6731 15.4667 18.2301 19.5914 18.2301H23.7896V17.356C23.7896 15.2921 23.5528 14.6865 20.3766 14.6865H15.1835L15.691 9.62496H21.3673C28.3363 9.62496 29.8643 11.8248 29.8643 17.3969V29.4139ZM47.0772 15.0576C43.9273 14.5179 43.0227 14.3993 41.5071 14.3993C38.7849 14.3993 37.9622 14.9994 37.9622 17.3095V21.6794C37.9622 23.9896 38.7849 24.5924 41.5071 24.5924C43.0227 24.5924 43.9273 24.4717 47.0772 23.9299V28.8673C44.3182 29.4854 42.5207 29.6477 41.0017 29.6477C34.4812 29.6477 31.8895 26.2213 31.8895 21.2715V17.7258C31.8895 12.7718 34.4812 9.33914 41.0017 9.33914C42.5207 9.33914 44.3182 9.50217 47.0772 10.1231V15.0576ZM66.0833 21.2715H54.9459V21.6794C54.9459 23.9896 55.7693 24.5924 58.4908 24.5924C60.9374 24.5924 62.4307 24.4717 65.5751 23.9299V28.8673C62.5425 29.4854 60.9624 29.6477 57.9875 29.6477C51.4663 29.6477 48.8732 26.2213 48.8732 21.2715V17.2173C48.8732 12.8862 50.797 9.33914 57.4793 9.33914C64.1615 9.33914 66.0833 12.8453 66.0833 17.2173V21.2715ZM85.826 21.3651C85.826 26.1492 84.4576 29.6387 76.1681 29.6387C73.1744 29.6387 71.4186 29.3758 68.1147 28.8679V1.52068L74.186 0.508513V10.0745C75.4981 9.5875 77.1963 9.33983 78.7417 9.33983C84.8137 9.33983 85.8253 12.06 85.8253 16.4313V21.3651H85.826ZM105.288 21.4692C105.288 25.5963 103.583 29.5991 96.4489 29.5991C89.3111 29.5991 87.5741 25.5963 87.5741 21.4692V17.4844C87.5741 13.3552 89.3111 9.35163 96.4489 9.35163C103.583 9.35163 105.288 13.3552 105.288 17.4844V21.4692ZM124.737 21.4692C124.737 25.5963 123.03 29.5991 115.897 29.5991C108.759 29.5991 107.022 25.5963 107.022 21.4692V17.4844C107.022 13.3552 108.759 9.35163 115.897 9.35163C123.03 9.35163 124.737 13.3552 124.737 17.4844V21.4692ZM144.697 29.3758H138.116L132.55 20.0914V29.3758H126.476V1.51999L132.55 0.507819V18.4403L138.116 9.62496H144.697L138.62 19.2451L144.697 29.3758ZM115.876 14.4083C113.814 14.4083 113.098 15.5349 113.098 16.9377V22.0568C113.098 23.463 113.814 24.5931 115.876 24.5931C117.936 24.5931 118.665 23.463 118.665 22.0568V16.9377C118.665 15.5349 117.936 14.4083 115.876 14.4083ZM148.163 25.9112C149.186 25.9112 150 26.7444 150 27.785C150 28.8416 149.185 29.6657 148.155 29.6657C147.131 29.6657 146.3 28.8416 146.3 27.785C146.3 26.7444 147.131 25.9112 148.155 25.9112H148.163ZM148.155 26.2026C147.331 26.2026 146.657 26.9109 146.657 27.785C146.657 28.6751 147.332 29.3744 148.163 29.3744C148.995 29.3827 149.659 28.6751 149.659 27.7933C149.659 26.9116 148.995 26.2026 148.163 26.2026H148.155ZM147.806 28.8756H147.473V26.7846C147.648 26.7604 147.814 26.7361 148.064 26.7361C148.381 26.7361 148.588 26.8027 148.715 26.8936C148.838 26.9858 148.904 27.1267 148.904 27.3258C148.904 27.6019 148.722 27.7677 148.498 27.835V27.8509C148.68 27.8849 148.804 28.05 148.847 28.3574C148.895 28.6827 148.946 28.8069 148.979 28.8749H148.63C148.58 28.8069 148.53 28.6161 148.488 28.3407C148.439 28.075 148.305 27.9751 148.038 27.9751H147.807V28.8756H147.806ZM147.806 27.7184H148.048C148.321 27.7184 148.554 27.6178 148.554 27.3591C148.554 27.1759 148.422 26.9935 148.048 26.9935C147.939 26.9935 147.863 27.0018 147.806 27.0094V27.7184Z" />
    </symbol>

    <symbol id="arrow">
        <path d="M15.75 7.72571L0.75 7.72571" stroke="#A3B938" stroke-width="1.5" stroke-linecap="round" stroke-linejoin="round"/>
        <path d="M9.69971 1.70118C9.69971 1.70118 15.7497 4.96218 15.7497 7.72418C15.7497 10.4882 9.69971 13.7502 9.69971 13.7502" stroke="#A3B938" stroke-width="1.5" stroke-linecap="round" stroke-linejoin="round"/>
    </symbol>

    <symbol id="green">
        <path d="M49.9999 0L38.4615 11.5385H0L11.5384 0L49.9999 0Z" fill="#C9F87C" />
                            <rect y="11.5385" width="38.4615" height="38.4615" fill="#6BCD49" />
                            <path d="M50.0004 38.4614V0.000213623L38.4619 11.5386V49.9998L50.0004 38.4614Z" fill="#5EBA3F" />
                        
    </symbol>
    
    <symbol id="blue">

        <g clip-path="url(#clip0_7_113)">
            <path
                d="M11.8164 25C11.8164 15.1597 18.357 6.53311 27.6252 3.83809L29.3908 0.397852C27.9415 0.141602 26.4674 0 25 0C11.2686 0 0 11.2686 0 25C0 38.7314 11.2686 50 25 50C26.4689 50 27.9449 49.8584 29.396 49.6015L29.0827 46.4504C19.0464 44.2667 11.8164 35.3508 11.8164 25Z"
                fill="#7CAEF8" />
            <path fill-rule="evenodd" clip-rule="evenodd"
                d="M30.6794 3.15448L37.3048 3.37889C45.0684 7.74413 50.0001 15.9181 50.0001 25C50.0001 26.4634 49.8486 27.9471 49.5909 29.3895L49.5893 29.3886L49.5899 29.3945L49.5605 29.6583C49.209 31.5332 48.5256 33.4082 47.7052 35.2246C47.6616 35.3265 47.6107 35.4356 47.5598 35.5448C47.5082 35.6554 47.4566 35.766 47.4124 35.8692V35.8983C47.3978 35.9424 47.3757 35.9791 47.3537 36.0158C47.3317 36.0524 47.3098 36.089 47.2951 36.1328C46.9143 36.8945 46.4749 37.6269 46.0354 38.3594C45.7718 38.7695 45.4787 39.1797 45.1564 39.5897C44.9513 39.9121 44.7168 40.2344 44.4533 40.5566C44.0724 41.0253 43.6915 41.4648 43.252 41.9044C41.5529 43.7793 39.5314 45.3614 37.3341 46.6212H30.2736C25.0588 43.6328 21.0159 38.799 19.0822 33.1153C19.0822 33.1153 19.0822 33.1153 19.0822 33.1153L19.082 33.1153H19.0235L18.7686 32.2329C18.724 32.0894 18.6826 31.9459 18.6443 31.8025C18.6438 31.8006 18.6433 31.7988 18.6428 31.797H18.6427C18.5861 31.6046 18.5339 31.4121 18.4843 31.2197L18.2327 30.3028H18.2618C17.881 28.5451 17.6759 26.7872 17.6759 25.0001L17.6759 24.6778L17.6172 24.7071L17.703 23.8208C17.7036 23.8155 17.7041 23.8103 17.7046 23.805C17.7048 23.803 17.705 23.8009 17.7052 23.7989C17.7148 23.6647 17.7212 23.5336 17.7276 23.4036L17.7276 23.4026M17.8449 22.1564C17.8729 21.9679 17.9062 21.7848 17.9395 21.6016L17.9103 21.6016L17.8449 22.1564Z"
                fill="#5374E9" />
            <path
                d="M34.3164 45.3907C28.0762 42.8419 23.2714 37.4512 21.4551 30.9766C21.338 30.5665 21.2208 30.1271 21.1328 29.7168C20.7812 28.1642 20.6055 26.582 20.6055 25C20.6055 24.2969 20.6348 23.6231 20.7226 22.9198C21.1034 18.8769 22.5683 15.0683 25 11.8164L25.4396 11.2598C27.7246 8.38877 30.8007 6.07412 34.3164 4.60928L37.3047 3.37891C36.4843 2.88096 35.6054 2.44141 34.6973 2.06055C34.6973 2.06055 34.0819 1.82627 33.9941 1.79697C32.5293 1.21104 31.1231 0.703125 29.6583 0.439551L29.3945 0.380859L29.1308 0.439551C17.3829 2.66592 8.88672 13.0468 8.88672 25C8.88672 36.9532 17.3829 47.3341 29.1308 49.5605L29.3945 49.6191L29.6583 49.5605C31.1231 49.2969 32.5293 48.7891 33.9941 48.203C34.0819 48.1737 34.1992 48.1152 34.287 48.0859L34.7852 47.8809C35.6641 47.5293 36.5136 47.0898 37.334 46.6211L34.3164 45.3907Z"
                fill="#6C8DFF" />
        </g>
        <defs>
            <clippath id="clip0_7_113">
                <rect width="50" height="50" fill="white" />
            </clippath>
        </defs>      
    </symbol>

    <symbol id="violet">
        <g clip-path="url(#clip0_7_135)">
            <path d="M50 37.0713L25 0L0 37.0713L25 50L50 37.0713Z" fill="#DE78F0" />
            <path d="M50 37.0713L25 0V50L50 37.0713Z" fill="#BF4CD9" />
            <path d="M25 24.1426L0 37.0713L25 50L50 37.0713L25 24.1426Z" fill="#A934C4" />
            <path d="M25 24.1426V50L50 37.0713L25 24.1426Z" fill="#9430A1" />
        </g>
        <defs>
            <clippath id="clip0_7_135">
                <rect width="50" height="50" fill="white" />
            </clippath>
        </defs>
    </symbol>

    <symbol id="orange">
            <path d="M19.1406 12.5027L25 1.14441e-05H40.9829L42.1502 12.5027H19.1406Z" fill="#F8C67C"/>
            <path d="M7.84961 12.5027L9.0169 1.14441e-05H24.9998V12.5027H7.84961Z" fill="#F8C67C"/>
            <path d="M25 50L19.1406 27.9297L25 5.85938H34.8576C36.6864 5.85938 38.4381 6.5376 39.79 7.76924C41.142 9.00088 41.9802 10.6819 42.1501 12.5027L45.6509 50H25Z" fill="#F39321"/>
            <path d="M10.2098 7.76924C11.5618 6.5376 13.3134 5.85938 15.1422 5.85938H24.9999V50H4.34888L7.84966 12.5027C8.01968 10.6818 8.85786 9.00078 10.2098 7.76924Z" fill="#F3A141"/>

    </symbol>

    <symbol id="logo-1">
    <path
            d="M37.2788 49.1453C44.0106 49.1453 49.4677 43.6882 49.4677 36.9564C49.4677 30.2246 44.0106 24.7675 37.2788 24.7675C30.547 24.7675 25.0898 30.2246 25.0898 36.9564C25.0898 43.6882 30.547 49.1453 37.2788 49.1453Z"
            fill="#EDFF81" />
        <path
            d="M40.9353 17.454C45.6476 17.454 49.4676 13.634 49.4676 8.92179C49.4676 4.20955 45.6476 0.389526 40.9353 0.389526C36.2231 0.389526 32.4031 4.20955 32.4031 8.92179C32.4031 13.634 36.2231 17.454 40.9353 17.454Z"
            fill="white" />
        <path
            d="M9.31742 49.0722C14.0297 49.0722 17.8497 45.2522 17.8497 40.5399C17.8497 35.8277 14.0297 32.0077 9.31742 32.0077C4.60518 32.0077 0.785156 35.8277 0.785156 40.5399C0.785156 45.2522 4.60518 49.0722 9.31742 49.0722Z"
            fill="white" />
        <path
            d="M12.9009 24.7674C19.6326 24.7674 25.0898 19.3102 25.0898 12.5785C25.0898 5.8467 19.6326 0.389526 12.9009 0.389526C6.16909 0.389526 0.711914 5.8467 0.711914 12.5785C0.711914 19.3102 6.16909 24.7674 12.9009 24.7674Z"
            fill="#EDFF81" />
                
    </symbol>

    <symbol id="logo-2">
    <path
            d="M1.35652 37.3692C1.01848 37.3692 0.714241 37.2509 0.443809 37.0142C0.207181 36.7776 0.0888672 36.4734 0.0888672 36.1015V12.2697C0.0888672 11.8979 0.207181 11.5936 0.443809 11.357C0.714241 11.1204 1.01848 11.0021 1.35652 11.0021H6.07218C6.44402 11.0021 6.74826 11.1204 6.98488 11.357C7.22151 11.5936 7.33983 11.8979 7.33983 12.2697V13.9937C8.04971 13.0472 8.99622 12.2359 10.1794 11.5598C11.3963 10.8838 12.833 10.5288 14.4894 10.495C18.3768 10.4274 21.0642 11.9148 22.5516 14.9571C23.3291 13.6388 24.4446 12.574 25.8982 11.7627C27.3518 10.9176 28.9575 10.495 30.7153 10.495C32.4731 10.495 34.0619 10.9007 35.4817 11.7119C36.9014 12.4894 38.0339 13.7064 38.879 15.3628C39.7241 16.9854 40.1466 19.0812 40.1466 21.6503V36.1015C40.1466 36.4734 40.0114 36.7776 39.741 37.0142C39.5043 37.2509 39.217 37.3692 38.879 37.3692H33.8591C33.4872 37.3692 33.183 37.2509 32.9464 37.0142C32.7097 36.7776 32.5914 36.4734 32.5914 36.1015V22.056C32.5914 20.67 32.3886 19.5883 31.9829 18.8108C31.6111 18.0333 31.0871 17.4755 30.4111 17.1375C29.7688 16.7656 29.042 16.5797 28.2307 16.5797C27.5208 16.5797 26.8278 16.7656 26.1517 17.1375C25.5095 17.4755 24.9686 18.0333 24.5292 18.8108C24.1235 19.5883 23.9207 20.67 23.9207 22.056V36.1015C23.9207 36.4734 23.8024 36.7776 23.5657 37.0142C23.3291 37.2509 23.0418 37.3692 22.7037 37.3692H17.6838C17.312 37.3692 17.0078 37.2509 16.7711 37.0142C16.5345 36.7776 16.4162 36.4734 16.4162 36.1015V22.056C16.4162 20.67 16.2134 19.5883 15.8077 18.8108C15.4021 18.0333 14.8612 17.4755 14.1851 17.1375C13.5429 16.7656 12.833 16.5797 12.0555 16.5797C11.3456 16.5797 10.6526 16.7656 9.97654 17.1375C9.33426 17.4755 8.7934 18.0333 8.35394 18.8108C7.9483 19.5883 7.74547 20.6531 7.74547 22.0053V36.1015C7.74547 36.4734 7.62716 36.7776 7.39053 37.0142C7.1539 37.2509 6.84967 37.3692 6.47782 37.3692H1.35652Z"
            fill="white" />
        <path
            d="M55.0126 37.8762C53.221 37.8762 51.6153 37.5382 50.1955 36.8621C48.7757 36.1522 47.6433 35.2057 46.7982 34.0226C45.9531 32.8395 45.5306 31.5211 45.5306 30.0675C45.5306 27.6674 46.494 25.7744 48.4208 24.3885C50.3814 23.0025 52.9505 22.056 56.1281 21.5489L62.7706 20.5855V19.6728C62.7706 18.3544 62.4664 17.3403 61.8579 16.6304C61.2494 15.9205 60.1846 15.5656 58.6634 15.5656C57.5479 15.5656 56.6521 15.7853 55.976 16.2248C55.3337 16.6642 54.8267 17.2389 54.4548 17.9488C54.1844 18.3882 53.7787 18.608 53.2379 18.608H48.4208C48.049 18.608 47.7616 18.5066 47.5588 18.3037C47.356 18.0671 47.2715 17.7967 47.3053 17.4924C47.3053 16.9178 47.525 16.2417 47.9644 15.4642C48.4039 14.6867 49.08 13.9261 49.9927 13.1824C50.9054 12.4049 52.0716 11.7627 53.4914 11.2556C54.945 10.7485 56.6859 10.495 58.7141 10.495C60.8438 10.495 62.6692 10.7485 64.1904 11.2556C65.7115 11.7627 66.9285 12.4725 67.8412 13.3852C68.7877 14.298 69.4638 15.3628 69.8694 16.5797C70.3089 17.7629 70.5286 19.0474 70.5286 20.4334V36.1015C70.5286 36.4734 70.4103 36.7776 70.1737 37.0142C69.937 37.2509 69.6497 37.3692 69.3117 37.3692H64.2918C63.9537 37.3692 63.6664 37.2509 63.4298 37.0142C63.1931 36.7776 63.0748 36.4734 63.0748 36.1015V34.2254C62.6354 34.8677 62.0438 35.4762 61.3001 36.0508C60.5564 36.5917 59.6606 37.0311 58.6127 37.3692C57.5986 37.7072 56.3985 37.8762 55.0126 37.8762ZM57.0408 32.6028C58.1563 32.6028 59.1536 32.3662 60.0325 31.8929C60.9114 31.4197 61.6044 30.6929 62.1114 29.7126C62.6185 28.7323 62.872 27.4984 62.872 26.011V25.149L58.1563 25.9096C56.3647 26.2139 55.0464 26.6702 54.2013 27.2787C53.3562 27.8872 52.9336 28.6309 52.9336 29.5098C52.9336 30.152 53.1196 30.7098 53.4914 31.1831C53.897 31.6225 54.4041 31.9774 55.0126 32.2479C55.6549 32.4845 56.3309 32.6028 57.0408 32.6028Z"
            fill="white" />
        <path
            d="M78.8991 37.3692C78.561 37.3692 78.2568 37.2509 77.9864 37.0142C77.7497 36.7776 77.6314 36.4734 77.6314 36.1015V12.2697C77.6314 11.9317 77.7497 11.6443 77.9864 11.4077C78.2568 11.1373 78.561 11.0021 78.8991 11.0021H83.8682C84.2401 11.0021 84.5443 11.1373 84.781 11.4077C85.0176 11.6443 85.1359 11.9317 85.1359 12.2697V14.298C85.981 13.25 87.0289 12.4387 88.2797 11.8641C89.5304 11.2894 90.9502 11.0021 92.539 11.0021H94.7193C95.0912 11.0021 95.3954 11.1204 95.632 11.357C95.8687 11.5936 95.987 11.8979 95.987 12.2697V16.6811C95.987 17.0192 95.8687 17.3065 95.632 17.5431C95.3954 17.7798 95.0912 17.8981 94.7193 17.8981H90.3079C88.7867 17.8981 87.6036 18.3206 86.7585 19.1657C85.9472 20.0108 85.5415 21.1771 85.5415 22.6644V36.1015C85.5415 36.4734 85.4063 36.7776 85.1359 37.0142C84.8993 37.2509 84.6119 37.3692 84.2739 37.3692H78.8991Z"
            fill="white" />
        <path
            d="M102.049 37.3692C101.677 37.3692 101.373 37.2509 101.136 37.0142C100.899 36.7776 100.781 36.4734 100.781 36.1015V2.63557C100.781 2.26373 100.899 1.95949 101.136 1.72287C101.373 1.48624 101.677 1.36792 102.049 1.36792H107.018C107.356 1.36792 107.643 1.48624 107.88 1.72287C108.15 1.95949 108.286 2.26373 108.286 2.63557V19.7742L116.044 11.8641C116.314 11.6274 116.551 11.4246 116.753 11.2556C116.99 11.0866 117.345 11.0021 117.818 11.0021H123.599C123.903 11.0021 124.157 11.1204 124.359 11.357C124.596 11.5598 124.714 11.8134 124.714 12.1176C124.714 12.2528 124.68 12.4049 124.613 12.574C124.545 12.743 124.427 12.8782 124.258 12.9796L114.472 22.8166L125.526 35.4424C125.796 35.7128 125.931 35.9832 125.931 36.2537C125.931 36.5579 125.83 36.8283 125.627 37.0649C125.424 37.2678 125.154 37.3692 124.816 37.3692H118.934C118.427 37.3692 118.055 37.2847 117.818 37.1157C117.615 36.9466 117.379 36.7438 117.108 36.5072L108.286 26.5688V36.1015C108.286 36.4734 108.15 36.7776 107.88 37.0142C107.643 37.2509 107.356 37.3692 107.018 37.3692H102.049Z"
            fill="white" />
        <path
            d="M141.14 37.8762C137.253 37.8762 134.16 36.7945 131.861 34.6311C129.596 32.4676 128.396 29.3238 128.261 25.1997C128.261 24.9293 128.261 24.5744 128.261 24.1349C128.261 23.6617 128.261 23.3067 128.261 23.0701C128.396 20.4334 128.988 18.1854 130.036 16.3262C131.084 14.4332 132.554 12.9965 134.447 12.0162C136.34 11.0021 138.554 10.495 141.09 10.495C143.963 10.495 146.346 11.0866 148.239 12.2697C150.132 13.4191 151.552 15.0078 152.498 17.0361C153.479 19.0305 153.969 21.3292 153.969 23.9321V25.0983C153.969 25.4364 153.851 25.7406 153.614 26.011C153.377 26.2477 153.073 26.366 152.701 26.366H136.171C136.171 26.366 136.171 26.4167 136.171 26.5181C136.171 26.5857 136.171 26.6533 136.171 26.7209C136.205 27.8027 136.408 28.7999 136.78 29.7126C137.151 30.5915 137.692 31.3014 138.402 31.8422C139.146 32.3831 140.042 32.6535 141.09 32.6535C141.901 32.6535 142.577 32.5352 143.118 32.2986C143.659 32.0282 144.098 31.7408 144.436 31.4366C144.808 31.0985 145.078 30.8112 145.247 30.5746C145.552 30.2027 145.788 29.983 145.957 29.9154C146.16 29.814 146.448 29.7633 146.819 29.7633H152.194C152.498 29.7633 152.752 29.8647 152.955 30.0675C153.191 30.2703 153.293 30.5239 153.259 30.8281C153.225 31.4028 152.938 32.0958 152.397 32.9071C151.89 33.6846 151.129 34.462 150.115 35.2395C149.101 35.9832 147.833 36.6086 146.312 37.1157C144.825 37.6227 143.101 37.8762 141.14 37.8762ZM136.171 21.701H146.059V21.5489C146.059 20.3658 145.856 19.3348 145.45 18.4558C145.078 17.5431 144.521 16.8333 143.777 16.3262C143.033 15.8191 142.137 15.5656 141.09 15.5656C140.042 15.5656 139.146 15.8191 138.402 16.3262C137.692 16.8333 137.134 17.5431 136.729 18.4558C136.357 19.3348 136.171 20.3658 136.171 21.5489V21.701Z"
            fill="white" />
        <path
            d="M172.679 37.3692C170.583 37.3692 168.791 37.0311 167.304 36.3551C165.85 35.6452 164.735 34.5635 163.957 33.1099C163.18 31.6563 162.791 29.8309 162.791 27.6336V16.9854H158.836C158.464 16.9854 158.16 16.8671 157.923 16.6304C157.687 16.3938 157.568 16.1065 157.568 15.7684V12.2697C157.568 11.8979 157.687 11.5936 157.923 11.357C158.16 11.1204 158.464 11.0021 158.836 11.0021H162.791V2.63557C162.791 2.26373 162.909 1.95949 163.146 1.72287C163.416 1.48624 163.721 1.36792 164.059 1.36792H169.078C169.417 1.36792 169.704 1.48624 169.94 1.72287C170.177 1.95949 170.295 2.26373 170.295 2.63557V11.0021H176.634C177.006 11.0021 177.31 11.1204 177.546 11.357C177.783 11.5936 177.901 11.8979 177.901 12.2697V15.7684C177.901 16.1065 177.783 16.3938 177.546 16.6304C177.31 16.8671 177.006 16.9854 176.634 16.9854H170.295V27.0252C170.295 28.3097 170.532 29.3238 171.005 30.0675C171.479 30.7774 172.273 31.1323 173.388 31.1323H177.09C177.462 31.1323 177.766 31.2507 178.003 31.4873C178.239 31.7239 178.358 32.0113 178.358 32.3493V36.1015C178.358 36.4734 178.239 36.7776 178.003 37.0142C177.766 37.2509 177.462 37.3692 177.09 37.3692H172.679Z"
            fill="white" />
        <path
            d="M185.012 37.3692C184.641 37.3692 184.336 37.2509 184.1 37.0142C183.863 36.7776 183.745 36.4734 183.745 36.1015V2.63557C183.745 2.26373 183.863 1.95949 184.1 1.72287C184.336 1.48624 184.641 1.36792 185.012 1.36792H190.489C190.861 1.36792 191.165 1.48624 191.401 1.72287C191.638 1.95949 191.756 2.26373 191.756 2.63557V14.0444C192.635 12.9627 193.734 12.1007 195.052 11.4584C196.404 10.8161 198.01 10.495 199.869 10.495C201.864 10.495 203.622 10.9514 205.143 11.8641C206.698 12.743 207.898 14.0444 208.743 15.7684C209.622 17.4586 210.061 19.5207 210.061 21.9546V36.1015C210.061 36.4734 209.943 36.7776 209.706 37.0142C209.47 37.2509 209.165 37.3692 208.794 37.3692H203.267C202.929 37.3692 202.641 37.2509 202.405 37.0142C202.168 36.7776 202.05 36.4734 202.05 36.1015V22.2588C202.05 20.4672 201.61 19.0812 200.731 18.1009C199.852 17.0868 198.602 16.5797 196.979 16.5797C195.39 16.5797 194.123 17.0868 193.176 18.1009C192.23 19.0812 191.756 20.4672 191.756 22.2588V36.1015C191.756 36.4734 191.638 36.7776 191.401 37.0142C191.165 37.2509 190.861 37.3692 190.489 37.3692H185.012Z"
            fill="white" />
        <path
            d="M218.36 37.3692C218.022 37.3692 217.718 37.2509 217.448 37.0142C217.211 36.7776 217.093 36.4734 217.093 36.1015V12.2697C217.093 11.8979 217.211 11.5936 217.448 11.357C217.718 11.1204 218.022 11.0021 218.36 11.0021H223.482C223.82 11.0021 224.107 11.1204 224.344 11.357C224.58 11.5936 224.699 11.8979 224.699 12.2697V36.1015C224.699 36.4734 224.58 36.7776 224.344 37.0142C224.107 37.2509 223.82 37.3692 223.482 37.3692H218.36ZM218.208 6.94559C217.87 6.94559 217.583 6.82727 217.346 6.59064C217.11 6.35401 216.991 6.04978 216.991 5.67794V1.57075C216.991 1.23271 217.11 0.945375 217.346 0.708746C217.583 0.438316 217.87 0.303101 218.208 0.303101H223.583C223.921 0.303101 224.208 0.438316 224.445 0.708746C224.716 0.945375 224.851 1.23271 224.851 1.57075V5.67794C224.851 6.04978 224.716 6.35401 224.445 6.59064C224.208 6.82727 223.921 6.94559 223.583 6.94559H218.208Z"
            fill="white" />
        <path
            d="M233.338 37.3692C233 37.3692 232.696 37.2509 232.426 37.0142C232.189 36.7776 232.071 36.4734 232.071 36.1015V12.2697C232.071 11.8979 232.189 11.5936 232.426 11.357C232.696 11.1204 233 11.0021 233.338 11.0021H238.308C238.679 11.0021 238.984 11.1204 239.22 11.357C239.457 11.5936 239.575 11.8979 239.575 12.2697V14.2472C240.454 13.1655 241.587 12.2697 242.973 11.5598C244.392 10.8499 246.083 10.495 248.043 10.495C250.038 10.495 251.795 10.9514 253.317 11.8641C254.838 12.743 256.021 14.0444 256.866 15.7684C257.711 17.4586 258.134 19.5207 258.134 21.9546V36.1015C258.134 36.4734 258.015 36.7776 257.779 37.0142C257.542 37.2509 257.238 37.3692 256.866 37.3692H251.491C251.119 37.3692 250.815 37.2509 250.578 37.0142C250.342 36.7776 250.224 36.4734 250.224 36.1015V22.2588C250.224 20.4672 249.784 19.0812 248.905 18.1009C248.06 17.0868 246.809 16.5797 245.153 16.5797C243.564 16.5797 242.296 17.0868 241.35 18.1009C240.437 19.0812 239.981 20.4672 239.981 22.2588V36.1015C239.981 36.4734 239.863 36.7776 239.626 37.0142C239.389 37.2509 239.085 37.3692 238.713 37.3692H233.338Z"
            fill="white" />
        <path
            d="M266.491 37.3692C266.119 37.3692 265.815 37.2509 265.578 37.0142C265.341 36.7776 265.223 36.4734 265.223 36.1015V2.63557C265.223 2.26373 265.341 1.95949 265.578 1.72287C265.815 1.48624 266.119 1.36792 266.491 1.36792H271.46C271.798 1.36792 272.085 1.48624 272.322 1.72287C272.592 1.95949 272.727 2.26373 272.727 2.63557V19.7742L280.486 11.8641C280.756 11.6274 280.993 11.4246 281.195 11.2556C281.432 11.0866 281.787 11.0021 282.26 11.0021H288.041C288.345 11.0021 288.598 11.1204 288.801 11.357C289.038 11.5598 289.156 11.8134 289.156 12.1176C289.156 12.2528 289.122 12.4049 289.055 12.574C288.987 12.743 288.869 12.8782 288.7 12.9796L278.914 22.8166L289.967 35.4424C290.238 35.7128 290.373 35.9832 290.373 36.2537C290.373 36.5579 290.272 36.8283 290.069 37.0649C289.866 37.2678 289.596 37.3692 289.258 37.3692H283.376C282.869 37.3692 282.497 37.2847 282.26 37.1157C282.057 36.9466 281.821 36.7438 281.55 36.5072L272.727 26.5688V36.1015C272.727 36.4734 272.592 36.7776 272.322 37.0142C272.085 37.2509 271.798 37.3692 271.46 37.3692H266.491Z"
            fill="white" />
    </symbol>

    <symbol id="logo-face">
        <g filter="url(#filter0_b_8_859)">
        <path d="M0.385742 39.8608C0.385742 13.5837 13.765 0.204468 40.0421 0.204468H56.9827C83.2598 0.204468 96.6391 13.5837 96.6391 39.8608V56.8014C96.6391 83.0786 83.2598 96.4578 56.9827 96.4578H40.0421C13.765 96.4578 0.385742 83.0786 0.385742 56.8014V39.8608Z" fill="url(#paint0_linear_8_859)"/>
        <path d="M1.88574 39.8608C1.88574 26.9604 5.16825 17.4918 11.4207 11.2394C17.673 4.98698 27.1416 1.70447 40.0421 1.70447H56.9827C69.8832 1.70447 79.3517 4.98698 85.6041 11.2394C91.8565 17.4918 95.1391 26.9604 95.1391 39.8608V56.8014C95.1391 69.7019 91.8565 79.1705 85.6041 85.4229C79.3517 91.6753 69.8832 94.9578 56.9827 94.9578H40.0421C27.1416 94.9578 17.673 91.6753 11.4207 85.4229C5.16825 79.1705 1.88574 69.7019 1.88574 56.8014V39.8608Z" stroke="url(#paint1_linear_8_859)" stroke-width="3"/>
        </g>
        <path d="M48.7699 73.8099C62.9836 73.8099 74.5061 62.2874 74.5061 48.0737C74.5061 33.86 62.9836 22.3375 48.7699 22.3375C34.5562 22.3375 23.0337 33.86 23.0337 48.0737C23.0337 62.2874 34.5562 73.8099 48.7699 73.8099Z" fill="#1977F3" fill-opacity="0.65"/>
        <path d="M58.7878 55.515L59.9279 48.074H52.7908V43.2459C52.7908 41.2119 53.7861 39.225 56.9855 39.225H60.2319V32.8914C60.2319 32.8914 57.2859 32.3883 54.4701 32.3883C48.5925 32.3883 44.7489 35.9496 44.7489 42.4027V48.074H38.2126V55.515H44.7489V73.4989C46.0591 73.7052 47.4018 73.8101 48.7699 73.8101C50.1379 73.8101 51.4807 73.7016 52.7908 73.4989V55.515H58.7878Z" fill="white"/>
        <defs>
        <filter id="filter0_b_8_859" x="-11.6143" y="-11.7955" width="120.253" height="120.253" filterUnits="userSpaceOnUse" color-interpolation-filters="sRGB">
        <feFlood flood-opacity="0" result="BackgroundImageFix"/>
        <feGaussianBlur in="BackgroundImageFix" stdDeviation="6"/>
        <feComposite in2="SourceAlpha" operator="in" result="effect1_backgroundBlur_8_859"/>
        <feBlend mode="normal" in="SourceGraphic" in2="effect1_backgroundBlur_8_859" result="shape"/>
        </filter>
        <linearGradient id="paint0_linear_8_859" x1="0.385742" y1="0.204468" x2="48.7698" y2="48.5885" gradientUnits="userSpaceOnUse">
        <stop stop-color="#1977F3" stop-opacity="0.6"/>
        <stop offset="1" stop-color="#1977F3" stop-opacity="0.2"/>
        </linearGradient>
        <linearGradient id="paint1_linear_8_859" x1="10.4229" y1="10.2416" x2="87.374" y2="87.1928" gradientUnits="userSpaceOnUse">
        <stop stop-color="white" stop-opacity="0.6"/>
        <stop offset="0.395833" stop-color="white" stop-opacity="0"/>
        <stop offset="0.586815" stop-color="#1977F3" stop-opacity="0"/>
        <stop offset="1" stop-color="#1977F3" stop-opacity="0.5"/>
        </linearGradient>
        </defs>
    </symbol>

    <symbol id="insta">
        <g filter="url(#filter0_b_8_839)">
        <path d="M33.4292 36.4591C48.7289 12.3005 68.8193 7.78993 92.9779 23.0896L108.553 32.9531C132.711 48.2527 137.222 68.3432 121.922 92.5018L112.059 108.077C96.759 132.235 76.6685 136.746 52.51 121.446L36.9352 111.582C12.7766 96.2828 8.26606 76.1924 23.5657 52.0338L33.4292 36.4591Z" fill="url(#paint0_radial_8_839)" fill-opacity="0.25"/>
        <path d="M34.6965 37.2616C42.2189 25.3835 50.7754 18.5593 60.21 16.4411C69.6447 14.3229 80.2972 16.8344 92.1753 24.3568L107.75 34.2203C119.628 41.7428 126.452 50.2993 128.571 59.7339C130.689 69.1685 128.177 79.8211 120.655 91.6992L110.791 107.274C103.269 119.152 94.7124 125.976 85.2778 128.095C75.8432 130.213 65.1906 127.701 53.3125 120.179L37.7378 110.315C25.8596 102.793 19.0354 94.2363 16.9172 84.8017C14.799 75.3671 17.3105 64.7145 24.833 52.8364L34.6965 37.2616Z" stroke="url(#paint1_linear_8_839)" stroke-width="3"/>
        </g>
        <path d="M65.2452 67.1872C68.0037 62.8315 73.7707 61.5352 78.1266 64.2938C82.4825 67.0524 83.7779 72.8213 81.0194 77.177C78.2609 81.5327 72.492 82.8278 68.136 80.0692C63.7801 77.3106 62.4867 71.543 65.2452 67.1872ZM60.9811 64.4868C56.7315 71.1971 58.7263 80.0814 65.4369 84.3313C72.1475 88.5811 81.0319 86.5866 85.2816 79.8763C89.5312 73.166 87.5364 64.2816 80.8258 60.0318C74.1152 55.7819 65.2308 57.7764 60.9811 64.4868ZM90.9227 65.7512C89.9289 67.3189 90.3943 69.3954 91.9621 70.3892C93.5299 71.3829 95.6064 70.9176 96.6001 69.3499C97.5939 67.7822 97.1285 65.7057 95.5607 64.7119L95.5596 64.7112C93.9916 63.7193 91.9166 64.1847 90.9227 65.7512ZM51.3747 85.3871C49.1342 83.8211 48.1237 82.6427 47.496 81.7903C46.6636 80.6606 46.1998 79.6492 45.8951 78.2968C45.5905 76.9444 45.5762 75.8321 45.8476 74.4562C46.0502 73.4176 46.4602 71.92 47.8163 69.5467C49.2811 66.98 49.7327 66.2163 53.7343 59.8976C57.7359 53.5789 58.2339 52.8475 59.9275 50.4228C61.4935 48.1825 62.6734 47.1759 63.5242 46.5443C64.6539 45.712 65.6653 45.2482 67.0178 44.9436C68.3702 44.639 69.4825 44.6248 70.8603 44.8974C71.8989 45.1001 73.3966 45.5102 75.77 46.8663C78.3368 48.3312 79.1005 48.7827 85.4166 52.7827C91.7327 56.7827 92.467 57.2825 94.8918 58.9762C97.1322 60.5423 98.1389 61.7221 98.7705 62.573C99.6041 63.7008 100.067 64.7141 100.371 66.0665C100.676 67.4189 100.687 68.5319 100.418 69.909C100.215 70.9476 99.805 72.4452 98.449 74.8185C96.9828 77.3873 96.5326 78.1489 92.531 84.4676C88.5293 90.7863 88.0333 91.5189 86.3377 93.9424C84.7717 96.1827 83.5915 97.192 82.7411 97.8209C81.6114 98.6532 80.6 99.117 79.2487 99.4197C77.8975 99.7224 76.7833 99.7355 75.4062 99.4659C74.3675 99.2632 72.8699 98.8532 70.4965 97.497C67.9297 96.0322 67.166 95.5806 60.847 91.5788C54.5281 87.577 53.7954 87.0809 51.3747 85.3871ZM78.2698 42.4855C75.6782 41.0049 73.704 40.3142 71.8304 39.9471C69.891 39.5653 68.06 39.541 65.9104 40.0218C63.7607 40.5026 62.1165 41.3106 60.5266 42.4847C58.9891 43.6184 57.5003 45.0857 55.7904 47.5319C54.076 49.981 53.5385 50.7706 49.4692 57.1962C45.3998 63.6219 44.9157 64.4453 43.4346 67.042C41.954 69.6338 41.2641 71.6068 40.8965 73.4813C40.5152 75.4196 40.4869 77.2531 40.9713 79.4012C41.4557 81.5493 42.2613 83.1933 43.4345 84.7849C44.5701 86.3236 46.0356 87.8113 48.482 89.5213C50.9336 91.2346 51.7208 91.7732 58.1467 95.8427C64.5725 99.9122 65.396 100.396 67.9928 101.878C70.5847 103.358 72.5577 104.048 74.4323 104.416C76.3718 104.795 78.2027 104.822 80.3523 104.341C82.5019 103.86 84.145 103.05 85.7361 101.878C87.2735 100.745 88.7643 99.2785 90.4723 96.8311C92.186 94.379 92.7222 93.5912 96.7916 87.1656C100.861 80.74 101.345 79.9165 102.828 77.321C104.309 74.7293 104.999 72.7553 105.366 70.8817C105.746 68.9423 105.772 67.1114 105.291 64.9618C104.811 62.8122 104.001 61.1674 102.83 59.5793C101.694 58.0406 100.228 56.5498 97.7826 54.8429C95.3323 53.1304 94.5438 52.591 88.1179 48.5215C81.692 44.452 80.868 43.9675 78.2698 42.4855Z" fill="url(#paint2_radial_8_839)"/>
        <defs>
        <filter id="filter0_b_8_839" x="2.69434" y="2.21814" width="140.099" height="140.099" filterUnits="userSpaceOnUse" color-interpolation-filters="sRGB">
        <feFlood flood-opacity="0" result="BackgroundImageFix"/>
        <feGaussianBlur in="BackgroundImageFix" stdDeviation="6"/>
        <feComposite in2="SourceAlpha" operator="in" result="effect1_backgroundBlur_8_839"/>
        <feBlend mode="normal" in="SourceGraphic" in2="effect1_backgroundBlur_8_839" result="shape"/>
        </filter>
        <radialGradient id="paint0_radial_8_839" cx="0" cy="0" r="1" gradientUnits="userSpaceOnUse" gradientTransform="translate(11.9687 96.3569) rotate(32.3461) scale(136.743)">
        <stop offset="0.09" stop-color="#FA8F21"/>
        <stop offset="0.78" stop-color="#D82D7E"/>
        </radialGradient>
        <linearGradient id="paint1_linear_8_839" x1="59.9026" y1="15.0719" x2="85.8455" y2="130.623" gradientUnits="userSpaceOnUse">
        <stop stop-color="white" stop-opacity="0.6"/>
        <stop offset="0.395833" stop-color="white" stop-opacity="0"/>
        <stop offset="0.586815" stop-color="#E04468" stop-opacity="0"/>
        <stop offset="1" stop-color="#E04468" stop-opacity="0.5"/>
        </linearGradient>
        <radialGradient id="paint2_radial_8_839" cx="0" cy="0" r="1" gradientUnits="userSpaceOnUse" gradientTransform="translate(40.6303 85.0628) rotate(32.3461) scale(73.1246)">
        <stop offset="0.09" stop-color="#FA8F21"/>
        <stop offset="0.78" stop-color="#D82D7E"/>
        </radialGradient>
        </defs>
    </symbol>

    <symbol id="n">
        <g filter="url(#filter0_b_8_846)">
        <path d="M0.356689 42.0096C0.356689 14.1867 14.5229 0.0205078 42.3458 0.0205078H60.2829C88.1057 0.0205078 102.272 14.1867 102.272 42.0096V59.9467C102.272 87.7696 88.1057 101.936 60.2829 101.936H42.3458C14.5229 101.936 0.356689 87.7696 0.356689 59.9467V42.0096Z" fill="url(#paint0_linear_8_846)"/>
        <path d="M1.85669 42.0096C1.85669 28.3363 5.33596 18.2845 11.9783 11.6421C18.6207 4.99977 28.6725 1.52051 42.3458 1.52051H60.2829C73.9562 1.52051 84.008 4.99977 90.6503 11.6421C97.2927 18.2845 100.772 28.3363 100.772 42.0096V59.9467C100.772 73.62 97.2927 83.6718 90.6503 90.3141C84.008 96.9565 73.9562 100.436 60.2829 100.436H42.3458C28.6725 100.436 18.6207 96.9565 11.9783 90.3141C5.33596 83.6718 1.85669 73.62 1.85669 59.9467V42.0096Z" stroke="url(#paint1_linear_8_846)" stroke-width="3"/>
        </g>
        <path d="M36.3283 35.3251C37.8647 36.5636 38.4414 36.4696 41.3289 36.2774L68.5459 34.6568C69.1226 34.6568 68.6427 34.0845 68.4512 33.9905L63.9284 30.7471C63.0634 30.0808 61.908 29.3164 59.696 29.5065L33.344 31.4154C32.3842 31.5094 32.1906 31.9876 32.5737 32.3678L36.3283 35.3251ZM37.9615 41.6198V70.0361C37.9615 71.5628 38.7297 72.1351 40.4618 72.039L70.3728 70.3223C72.1049 70.2282 72.2985 69.1778 72.2985 67.9372V39.711C72.2985 38.4724 71.8186 37.8041 70.7579 37.8981L39.5 39.711C38.3467 39.807 37.9615 40.3813 37.9615 41.6198ZM67.4894 43.1424C67.6809 44.0008 67.4894 44.8592 66.6244 44.9573L65.1827 45.2434V66.2204C63.9305 66.8888 62.7771 67.2709 61.8153 67.2709C60.2748 67.2709 59.8896 66.7927 58.7363 65.3641L49.3097 50.6777V64.8859L52.2919 65.5562C52.2919 65.5562 52.2919 67.273 49.8864 67.273L43.2505 67.6531C43.0589 67.273 43.2505 66.3185 43.9239 66.1285L45.654 65.6523V46.8641L43.2546 46.672C43.061 45.8136 43.5429 44.5751 44.8878 44.479L52.0056 44.0028L61.8174 58.8793V45.7175L59.315 45.4335C59.1235 44.383 59.8917 43.6206 60.8535 43.5266L67.4894 43.1424ZM31.132 28.8402L58.5447 26.8374C61.9101 26.5512 62.7771 26.7413 64.8923 28.268L73.6434 34.3706C75.085 35.4191 75.567 35.7052 75.567 36.8497V70.3223C75.567 72.4191 74.7988 73.6617 72.1069 73.8498L40.2703 75.7586C38.2519 75.8547 37.2881 75.5686 36.2294 74.232L29.7851 65.9343C28.6317 64.4076 28.1519 63.2652 28.1519 61.9286V32.1756C28.1519 30.4609 28.9221 29.0283 31.132 28.8402Z" fill="black"/>
        <defs>
        <filter id="filter0_b_8_846" x="-11.6433" y="-11.9795" width="125.915" height="125.915" filterUnits="userSpaceOnUse" color-interpolation-filters="sRGB">
        <feFlood flood-opacity="0" result="BackgroundImageFix"/>
        <feGaussianBlur in="BackgroundImageFix" stdDeviation="6"/>
        <feComposite in2="SourceAlpha" operator="in" result="effect1_backgroundBlur_8_846"/>
        <feBlend mode="normal" in="SourceGraphic" in2="effect1_backgroundBlur_8_846" result="shape"/>
        </filter>
        <linearGradient id="paint0_linear_8_846" x1="0.356689" y1="0.0205078" x2="51.5868" y2="51.2506" gradientUnits="userSpaceOnUse">
        <stop stop-opacity="0.3"/>
        <stop offset="1" stop-opacity="0.1"/>
        </linearGradient>
        <linearGradient id="paint1_linear_8_846" x1="10.9842" y1="10.648" x2="92.4619" y2="92.1258" gradientUnits="userSpaceOnUse">
        <stop stop-color="white" stop-opacity="0.6"/>
        <stop offset="0.395833" stop-color="white" stop-opacity="0"/>
        <stop offset="0.586815" stop-opacity="0"/>
        <stop offset="1" stop-opacity="0.3"/>
        </linearGradient>
        </defs>
    </symbol>

    <symbol id="figure-left">
        <path d="M0.569092 17.5654V111.817C24.6669 117.86 44.5909 122.856 67.8898 128.699L75.3699 81.0633L67.8898 33.428L35.2268 19.3277L0.569092 17.5654Z" fill="#5EBA3F"/>
        <path d="M67.8904 33.4277V128.698C75.3161 126.836 120.412 115.527 127.731 113.692V68.626V19.3279C118.899 19.7591 100.302 20.6674 95.068 20.923C91.7673 22.4412 71.2031 31.9036 67.8904 33.4277Z" fill="#6BCD49"/>
        <path fill-rule="evenodd" clip-rule="evenodd" d="M67.8898 33.4277C59.6857 31.4949 8.75629 19.4944 0.569092 17.5651L67.8898 0.683105L67.8904 0.684308V0.683323C85.5089 6.17264 91.5385 8.05132 95.8008 9.37934C101.568 11.1764 104.1 11.9651 127.731 19.3276C123.182 20.3997 103.788 24.9695 88.1071 28.6643C78.686 30.8841 70.6055 32.7881 67.8904 33.4279V33.4265L67.8898 33.4277Z" fill="#C9F87C"/>

    </symbol>

    <symbol id="figure-right">
        <path d="M0.314453 129.758V190.579C15.865 194.479 28.722 197.703 43.757 201.473L48.584 170.734L43.757 139.995L22.6793 130.895L0.314453 129.758Z" fill="#5EBA3F"/>
        <path d="M43.7573 10.4792V130.677L59.9556 139.811L82.373 142.708L87.1999 48.0411L82.373 20.312L63.0651 10.6284L43.7573 10.4792Z" fill="#5374E9"/>
        <path d="M82.3728 20.312V134.833L101.681 132.634L120.988 122.802C120.988 121.299 120.988 11.9812 120.988 10.4792L101.681 10.6284L82.3728 20.312Z" fill="#6C8DFF"/>
        <path fill-rule="evenodd" clip-rule="evenodd" d="M82.3728 0.795842V0.795654L82.3732 0.795748L82.3735 0.795677L82.3735 0.79584L120.988 10.4793L111.252 12.9585C100.754 15.6315 85.6208 19.4849 82.3736 20.3119L82.3735 20.3121C82.3733 20.3121 82.3732 20.312 82.3731 20.312C82.373 20.312 82.3729 20.312 82.3728 20.3121V20.3119C80.9568 19.9514 77.3127 19.0235 72.7839 17.8703C62.2805 15.1958 47.0186 11.3097 43.7578 10.4793L82.3728 0.795842Z" fill="#7CAEF8"/>
        <path d="M43.7573 139.994V201.473C48.5492 200.272 77.65 192.974 82.373 191.79L87.1999 161.343L82.373 130.896C76.6733 131.174 64.6728 131.76 61.2953 131.925C59.1653 132.905 45.895 139.011 43.7573 139.994Z" fill="#6BCD49"/>
        <path fill-rule="evenodd" clip-rule="evenodd" d="M43.757 139.994C38.4628 138.747 5.59772 131.003 0.314453 129.758L43.757 118.864L43.7574 118.865V118.864C55.1532 122.415 59.0358 123.624 61.7874 124.482C65.4958 125.637 67.1499 126.153 82.3731 130.895C79.4316 131.589 66.8713 134.548 56.7417 136.935C50.6887 138.361 45.5036 139.583 43.7574 139.995V139.994L43.757 139.994Z" fill="#C9F87C"/>
        <path d="M120.988 139.994L125.815 170.734L120.988 201.473C116.317 200.302 87.0747 192.969 82.3726 191.789C82.3726 188.408 82.3726 134.276 82.3726 130.895L101.68 131.602L120.988 139.994Z" fill="#F39321"/>
        <path d="M164.431 129.758V190.579C148.88 194.479 136.023 197.703 120.988 201.473C120.988 198.056 120.988 143.412 120.988 139.995L142.71 130.895L164.431 129.758Z" fill="#F3A141"/>
        <path fill-rule="evenodd" clip-rule="evenodd" d="M120.988 118.864L120.988 118.864C120.841 118.91 120.97 118.87 120.988 118.864V118.864C120.922 118.885 119.081 119.459 101.752 124.858C97.7738 126.097 92.9798 127.591 87.2037 129.39C85.6642 129.87 84.0548 130.372 82.3726 130.896L101.68 135.445L120.988 139.994L120.988 139.995C126.282 138.747 159.148 131.003 164.431 129.758L120.988 118.864C120.99 118.864 120.99 118.864 120.99 118.864C120.99 118.864 120.989 118.864 120.988 118.864L120.988 118.864Z" fill="#F8C67C"/>

    </symbol>

    <symbol id="violet-triang">
        <g clip-path="url(#clip0_19_36)">
        <path d="M50 37.0713L25 0L0 37.0713L25 50L50 37.0713Z" fill="#C9F87C"/>
        <path d="M50 37.0713L25 0V50L50 37.0713Z" fill="#6BCD49"/>
        <path d="M25 24.1426L0 37.0713L25 50L50 37.0713L25 24.1426Z" fill="#5EBA3F"/>
        <path d="M25 24.1426V50L50 37.0713L25 24.1426Z" fill="#48962E"/>
        </g>
        <defs>
        <clipPath id="clip0_19_36">
        <rect width="50" height="50" fill="white"/>
        </clipPath>
        </defs>
    </symbol>

</svg>